<svg xmlns="http://www.w3.org/2000/svg" viewBox="0 0 128 128">
  <rect width="128" height="128" fill="#F7DF1E"/>
  <path fill="#000" d="M34 106l9.5-5.8c1.8 3.3 3.4 6 7.3 6 3.7 0 6-1.5 6-7.4V59h11.2v40.2c0 11.5-6.7 16.7-16.5 16.7-8.8 0-13.9-4.6-17.5-9.9M75 104.8l9.5-5.5c2.5 4.1 5.8 7.2 11.6 7.2 4.9 0 8-2.5 8-5.8 0-4-3.2-5.4-8.5-7.8l-2.9-1.3c-8.4-3.6-14-8.1-14-17.7 0-8.8 6.7-15.5 17.3-15.5 7.5 0 12.9 2.6 16.7 9.3l-9.1 5.8c-2-3.6-4.2-5-7.6-5-3.5 0-5.7 2.2-5.7 5 0 3.5 2.2 4.9 7.3 7l2.9 1.3c9.9 4.2 15.5 8.6 15.5 18.5 0 10.6-8.3 16.3-19.5 16.3-10.9 0-17.9-5.2-21.3-12"/>
</svg>