<svg xmlns="http://www.w3.org/2000/svg" viewBox="0 0 128 128">
  <path fill="#306998" d="M63.5 8C50 8 51 14.2 51 14.2l.1 11H64v3.5H40.5S27 28.5 27 63.5 41.6 88 41.6 88h10.8v-15s-.6-15.2 14.1-15.2H77s13.7.2 13.7-13.3V23.5S91 8 63.5 8z"/>
  <path fill="#FFD43B" d="M64.5 120C78 120 77 113.8 77 113.8l-.1-11H64v-3.5h23.5S101 99.5 101 64.5 86.4 40 86.4 40H75.6v15s.6 15.2-14.1 15.2H51s-13.7-.2-13.7 13.3v21.5S37 120 64.5 120z"/>
  <circle cx="45" cy="24" r="5" fill="#FFF"/>
  <circle cx="83" cy="104" r="5" fill="#FFF"/>
</svg>